# xmcd
#
# Track frame offsets:
# 150
# 29295
# 56883
# 93771
# 115379
# 138791
# 150556
# 177033
# 200797
# 215745
#
# Disc length: 3099 seconds
#
#
# Revision: 0
# Processed by: cddbd v1.5.1PL2 Copyright (c) Steve Scherf et al.
# Submitted via: FreeRIP 2.941 
#
DISCID=8a0c190a
DTITLE=adem ramadani - duaja e nenes
DYEAR=2006
DGENRE=ilahije
TTITLE0=Duaja e nenes
TTITLE1=mir se erdhe ramazan
TTITLE2=gjithkund ka hy sherri
TTITLE3=kendo o vella Kur'an
TTITLE4=dita e gjykimit
TTITLE5=dasma islame
TTITLE6=pendimi
TTITLE7=shtrati im edhe dheu
TTITLE8=Ezani
TTITLE9=Ajete nga surja El-Kijameh
EXTD=keto jan ilahi nuk jan muzika
EXTT0=
EXTT1=
EXTT2=
EXTT3=
EXTT4=
EXTT5=
EXTT6=
EXTT7=
EXTT8=
EXTT9=
PLAYORDER=
